<svg width="814" height="2685" viewBox="0 0 814 2685" fill="none" xmlns="http://www.w3.org/2000/svg">
<path d="M406.792 1.83295C406.792 65.9848 393.495 127.47 389.839 191.247C386.864 243.15 391.247 282.605 419.996 327.195C456 383.039 487.462 434.054 478.352 503.895C472.585 548.114 439.174 588.985 393.752 596.157C357.712 601.847 279.821 607.891 259.434 568.446C252.029 554.119 243.916 521.137 259.108 507.97C286.116 484.563 336.377 504.518 362.291 517.751C385.752 529.731 373.637 562.368 355.282 571.706C339.851 579.557 325.729 585.18 308.988 589.963C263.532 602.95 224.929 634.894 199.773 675.052C178.131 709.602 200.812 747.147 220.801 776.769C241.86 807.977 267.216 838.205 295.458 863.163C314.286 879.801 339.902 879.258 364.41 875.877C380.075 873.717 393.372 862.437 409.074 859.088C436.644 853.206 465.762 855.716 492.208 865.119C536.904 881.011 614.883 922.886 579.254 981.017C572.866 991.439 560.745 1006.85 548.608 1011.17C495.25 1030.18 428.585 1022.12 372.887 1023.56C307.051 1025.27 224.729 1011.26 180.864 1071.16C148.406 1115.48 130.05 1174.67 146.959 1227.81C154.034 1250.05 156.237 1272.96 154.294 1296.27C153.021 1311.54 142.721 1324.21 142.721 1339.14C142.721 1349.69 139.786 1359.25 139.786 1369.79C139.786 1376.91 139.786 1384.03 139.786 1391.14C139.786 1398.35 144.79 1401.54 145.492 1408.91C147.313 1428.04 146.75 1448.07 150.871 1466.62C153.349 1477.76 130.993 1474.77 125.116 1474.77C94.8413 1474.77 45.4325 1478.83 28.7785 1446.57C2.16453 1395 52.2244 1338.71 106.859 1357.07C141.646 1368.77 157.372 1400.91 177.93 1427.82C210.74 1470.77 262.849 1485.13 313.878 1493.02C370.631 1501.81 427.34 1500 484.547 1502.8C532.718 1505.16 586.809 1504.02 633.698 1517.15C639.929 1518.89 643.884 1524.4 649.999 1524.65C658.503 1524.99 679.561 1527.87 684.882 1536.38C686.755 1539.38 687.715 1539.32 691.403 1539.32C704.732 1539.32 699.877 1560.41 700.042 1569.96C700.179 1577.92 698.241 1637.63 701.672 1597.84C702.508 1588.13 703.139 1558.92 703.139 1568.66C703.139 1662.22 703.139 1755.79 703.139 1849.36C703.139 1921.04 704.466 1992.85 703.139 2064.53C702.961 2074.13 683.238 2083.42 676.732 2088C643.502 2111.37 604.388 2114.94 567.68 2095.17C550.479 2085.91 544.081 2074.09 549.097 2054.58C557.629 2021.4 586.507 2001.81 619.516 1999.65C671.87 1996.22 706.666 2051.33 757.91 2022.47C767.397 2017.13 769.329 2010.58 776.492 2004.21C781.033 2000.18 790.33 2031.19 791.163 2033.23C798.296 2050.71 816.167 2070.46 811.05 2090.93C802.802 2123.93 718.999 2101.37 699.716 2091.42C686.605 2084.65 695.084 2105.32 685.697 2110.17C678.562 2113.85 671.093 2110.77 664.343 2116.69C658.484 2121.83 657.722 2130.92 649.347 2133.31C618.55 2142.11 596.414 2106.41 584.633 2084.9C573.735 2065 590.632 2048.61 609.573 2042.03C628.539 2035.44 649.919 2037.78 663.202 2054.26C677.975 2072.57 673.506 2098.85 648.369 2106.26C602.125 2119.88 545.804 2093.95 508.183 2070.23C480.898 2053.03 439.653 2018.31 493.838 2002.26C515.461 1995.85 687.703 1973.18 656.519 2041.7C643.559 2070.18 581.128 2067.93 561.649 2049.2C543.534 2031.78 593.229 2016.48 603.379 2014.97C613.187 2013.52 646.389 2006.09 653.748 2013.02C658.97 2017.93 656.39 2031.93 659.127 2038.77C667.794 2060.44 661.906 2090.94 662.713 2113.75C663.763 2143.4 664.669 2172.91 664.669 2202.59C664.669 2216.82 670.284 2265.38 659.453 2281C655.67 2286.45 634.716 2287.45 628.156 2288.17C592.347 2292.11 560.822 2300.07 526.439 2311.48C449.887 2336.88 372.135 2344.89 291.709 2345.71C242.399 2346.22 193.301 2341.29 144.025 2340.5C107.087 2339.9 65.1579 2345.99 29.1045 2337.24C-3.84397 2329.24 -6.65117 2293.2 18.183 2272.85C35.4009 2258.74 70.5873 2240.66 93.0033 2254.59C116.594 2269.26 113.804 2310.72 113.053 2333.49C112.472 2351.12 94.7982 2410.75 110.445 2426.4C112.816 2428.77 116.038 2417.41 116.313 2434.23C117.131 2484.13 116.313 2534.13 116.313 2584.03C116.313 2586.01 108.622 2668.03 117.943 2673.36C119.154 2674.05 125.917 2664.12 126.583 2663.09C128.696 2659.8 131.377 2655.17 135.874 2654.94C147.385 2654.33 161.515 2660.7 171.899 2663.74C199.199 2671.72 226.458 2678.32 254.869 2681.02C323.881 2687.57 395.359 2675.68 456.672 2642.22C488.641 2624.78 502.698 2597.14 503.618 2561.7C503.76 2556.26 502.493 2547.63 497.098 2555.83C490.177 2566.35 489.557 2586.35 493.838 2597.88C504.255 2625.95 556.389 2622.13 579.58 2625.6C594.742 2627.86 607.541 2632.89 620.984 2639.61" stroke="black" stroke-width="3" stroke-linecap="round"/>
</svg>
